<svg xmlns="http://www.w3.org/2000/svg" width="1024" height="1024" viewBox="0 0 1024 1024">
  <defs>
    <style>
      .cls-1 {
        fill: #ff826e;
      }

      .cls-1, .cls-2, .cls-3, .cls-4 {
        fill-rule: evenodd;
      }

      .cls-2 {
        fill: #ff9b8b;
      }

      .cls-3 {
        fill: #ffb1a4;
      }

      .cls-4 {
        fill: #1e1210;
      }
    </style>
  </defs>
  <path id="Triangle_1" data-name="Triangle 1" class="cls-1" d="M512,8.64l503.95,1006.72H8.054Z"/>
  <path id="Triangle_1-2" data-name="Triangle 1" class="cls-2" d="M754.785,494.065h0Zm0,0,261.165,521.3L468.637,694.241Z"/>
  <path id="Triangle_1-3" data-name="Triangle 1" class="cls-3" d="M468.637,694.241L1015.95,1015.36H8.054Z"/>
  <path id="nue" class="cls-4" d="M256.571,968.25V863.484q0-11.125,4.222-19a32.314,32.314,0,0,1,11.7-12.472,33.381,33.381,0,0,1,17.845-4.605q8.059,0,13.048,3.262t7.675,10.169q2.68,6.909,2.686,18.421V968.25H382.06V856.576q0-27.63-7.291-45.667t-21.875-27.054q-14.588-9.014-37.224-9.019-21.875,0-38.951,9.786c-11.387,6.524-16.412,8.933-22.552,20.956h0l0.486-26.137h-66.39V968.25h68.308Zm270.741-5.565c10.1-6.775,10.135-7.623,17.5-17.643h0l-0.042,23.208H611.93V779.441H543.622V883.823A42.031,42.031,0,0,1,539.4,903.2a31.231,31.231,0,0,1-11.321,12.664,30.241,30.241,0,0,1-16.309,4.413q-8.446,0-13.624-3.07a18.309,18.309,0,0,1-7.675-9.21q-2.5-6.134-2.494-15.35V779.441H419.668V891.115q0,27.252,7.867,45.475t23.6,27.247q15.732,9.012,40.295,9.018Q512.154,972.855,527.312,962.685Zm269.013,3.838q20.913-6.332,35.5-16.31l-16.885-45.667a89.9,89.9,0,0,1-28.4,13.048,116.757,116.757,0,0,1-30.317,4.221q-16.891,0-28.014-4.989a31.777,31.777,0,0,1-16.31-16.117c-3.454-7.418-5.322-15.453-5.353-28.329v-5.86c0-10.745,1.641-18.128,4.585-25.294a33.771,33.771,0,0,1,13.24-16.309,38.056,38.056,0,0,1,20.723-5.565q16.5,0,25.136,9.978c5.756,6.656,7.531,12.756,8.978,26.642H706.546v31.643l128.347,0.43V873.078q0-30.311-11.321-52.191a82.126,82.126,0,0,0-32.043-33.962q-20.724-12.088-49.5-12.089T690.792,787.5a92.594,92.594,0,0,0-35.305,34.922q-12.862,22.262-12.856,51.424,0,29.933,13.431,52.19t38.568,34.539q25.13,12.276,59.674,12.28A144.378,144.378,0,0,0,796.325,966.523Z"/>
</svg>
